<svg width="693" height="755" viewBox="0 0 693 755" fill="none" xmlns="http://www.w3.org/2000/svg">
<ellipse cx="346.5" cy="722" rx="346.5" ry="33" fill="#3D767E"/>
<path d="M174.436 275.248L188.821 254.765L177.202 243.693L164.477 262.516L174.436 275.248Z" fill="#C5EDF3"/>
<path d="M161.206 224.405L138.953 250.411L139.027 250.337L147.97 260.698C154.753 252.962 162.502 244.12 170.235 235.292L161.206 224.405Z" fill="#C5EDF3"/>
<path d="M155.625 217.674L129.622 247.015L134.601 254.765L138.953 250.411L161.206 224.405L155.625 217.674Z" fill="#C5EDF3"/>
<path d="M179.415 188.887L156.732 216.567L163.346 221.904L185.544 195.963L179.415 188.887Z" fill="#C5EDF3"/>
<path d="M196.013 162.315C201.767 165.858 202.099 173.756 201.546 177.262L185.544 195.963L163.346 221.904L161.206 224.405L170.235 235.292C175.004 229.846 179.768 224.407 184.294 219.235L194.353 207.156L186.608 197.191L199.886 201.067L199.95 201.331C207.47 192.72 212.607 186.816 213.164 186.119C215.377 183.352 224.229 185.012 228.656 189.995C232.196 193.981 237.877 190.179 240.274 187.78C281.4 139.617 364.426 42.4061 367.524 38.8631C370.622 35.32 367.708 30.7437 365.864 28.8983C356.828 21.148 337.648 4.76161 333.222 1.2186C328.796 -2.32441 322.525 2.69485 319.944 5.64736L193.8 151.797C192.14 153.826 190.259 158.772 196.013 162.315Z" fill="#FFB876"/>
<path d="M316.624 203.835H313.304C309.343 203.835 305.973 201.076 303.899 198.028V207.156C303.53 209.186 301.686 213.024 297.26 212.138C297.997 210.109 299.252 205.052 298.366 201.067C298.018 199.499 297.177 198.534 296.153 197.965V214.906C296.872 220.662 302.029 227.352 307.982 232.243L316.624 232.355V220.996V203.835Z" fill="#FFD0BC"/>
<path d="M337.095 208.817H346.5L343.844 203.835H316.624V220.996H337.095V208.817Z" fill="#FFD0BC"/>
<path d="M281.768 225.978C285.309 229.521 291.727 231.514 294.493 232.068L307.982 232.243C302.029 227.352 296.872 220.662 296.153 214.906V197.965C293.923 196.726 290.826 197.366 290.067 197.745C288.961 198.299 286.748 199.959 286.748 205.495V209.924C287.301 211.769 289.293 215.349 292.834 214.906L281.768 225.978Z" fill="#FFD0BC"/>
<path fill-rule="evenodd" clip-rule="evenodd" d="M281.768 225.978L279.937 224.387L277.532 222.295C277.535 222.3 277.539 222.304 277.543 222.308C279.046 224.032 280.578 225.289 281.768 225.978Z" fill="#C5EDF3"/>
<path d="M277.532 222.295C274.471 222.347 271.604 222.719 268.931 223.361C262.479 224.912 257.161 228.041 252.999 232.068C244.6 240.194 240.914 251.973 242.137 261.797C242.305 263.15 242.567 264.467 242.922 265.731C243.827 268.951 245.339 271.835 247.466 274.141L264.064 292.41L277.896 284.106L276.789 281.892L286.748 275.248L312.198 317.322L343.18 304.589C347.606 302.928 353.36 296.396 354.246 292.41C355.131 288.424 343.918 350.168 338.201 381.539L344.84 391.504H463.791C447.193 347.77 427.829 314.554 411.785 296.839C397.074 280.596 368.125 254.187 331.074 238.157H318.035L317.73 244.247L281.768 266.391L281.768 225.978C280.578 225.289 279.046 224.032 277.543 222.308C277.539 222.304 277.535 222.3 277.532 222.295L277.543 222.308C279.046 224.032 280.578 225.289 281.768 225.978L279.937 224.387C279.011 223.61 278.014 222.778 277.532 222.295C277.535 222.3 277.539 222.304 277.543 222.308L277.532 222.295Z" fill="#C5EDF3"/>
<path d="M277.896 284.106L264.064 292.41L242.487 306.25L188.821 254.765L174.436 275.248L209.291 320.643C217.406 330.054 239.278 346.219 261.851 335.59C276.641 328.626 286.539 324.292 292.383 321.871C295.459 320.598 297.413 319.854 298.366 319.536L277.896 284.106Z" fill="#FFD0BC"/>
<path d="M276.789 281.892L277.896 284.106L298.366 319.536L300.579 323.411L312.198 317.322L286.748 275.248L276.789 281.892Z" fill="#9DC4CA"/>
<path d="M343.18 304.589L312.198 317.322L300.579 323.411L298.366 319.536C297.413 319.854 295.459 320.598 292.383 321.871C305.151 336.874 332.021 369.613 338.201 381.539C343.918 350.168 355.131 288.424 354.246 292.41C353.36 296.396 347.606 302.928 343.18 304.589Z" fill="#B2DFE6"/>
<path d="M210.398 220.996C211.32 225.609 210.398 235.832 199.333 242.033L247.466 274.141C245.339 271.835 243.827 268.951 242.922 265.731C242.567 264.467 242.305 263.15 242.137 261.797C240.914 251.973 244.6 240.194 252.999 232.068L210.398 220.996Z" fill="#FFD0BC"/>
<path d="M149.539 262.516H164.477L177.202 243.693L170.235 235.292C162.502 244.12 154.753 252.962 147.97 260.698L149.539 262.516Z" fill="#C5EDF3"/>
<path d="M199.333 242.033C210.398 235.832 211.32 225.609 210.398 220.996L204.312 219.335L199.95 201.331C195.433 206.503 190.055 212.652 184.294 219.235L174.989 230.407L190.48 235.389L199.333 242.033Z" fill="#C5EDF3"/>
<path d="M199.886 201.067L186.608 197.191L194.353 207.156L184.294 219.235C190.055 212.652 195.433 206.503 199.95 201.331L199.886 201.067Z" fill="#C5EDF3"/>
<path d="M129.069 261.962L139.581 270.266C142.128 267.361 144.954 264.139 147.97 260.698L139.027 250.337L138.953 250.411L129.069 261.962Z" fill="#FFB876"/>
<path d="M139.581 270.266L129.069 261.962C128.331 261.593 126.634 261.187 125.749 262.516C124.864 263.844 119.848 269.343 117.45 271.927C116.528 273.034 115.569 275.802 119.11 278.016L125.749 283.552C126.856 284.29 129.732 284.992 132.388 281.892C135.044 278.791 138.29 275.433 139.581 274.141C140.134 273.287 140.908 271.315 139.581 270.266Z" fill="#D33333"/>
<path d="M337.648 192.209V186.119L314.411 186.501L303.899 186.673V198.028C305.973 201.076 309.343 203.835 313.304 203.835H316.624H343.844L337.648 192.209Z" fill="#FFD0BC"/>
<path d="M316.624 220.996V232.355L337.095 232.622V220.996H316.624Z" fill="#FFD0BC"/>
<path d="M294.493 232.068C291.727 231.514 285.309 229.521 281.768 225.978L281.768 266.391L317.73 244.247L318.035 238.157H317.73C314.63 236.994 311.19 234.88 307.982 232.243L294.493 232.068Z" fill="#FFD0BC"/>
<path d="M345.393 408.665V408.554L345.39 408.557L246.36 502.776C251.339 512.372 258.974 536.767 249.679 557.582C240.385 578.397 204.128 643.758 187.161 673.837C185.514 677.956 179.817 684.259 168.35 687.131L194.907 687.123C208.922 671.254 238.503 637.521 244.7 629.549C252.446 619.585 279.002 573.636 282.875 547.617L393.527 480.079L419.53 535.992C430.227 529.902 456.267 522.041 474.857 539.313C498.093 560.904 566.145 634.532 587.168 688.231L591.595 688.119C554.415 598.658 526.31 561.9 487.582 547.617C494.221 485.615 474.857 429.148 464.345 408.665H345.393Z" fill="#C5EDF3"/>
<path d="M314.411 181.137L341.521 175.048C340.414 153.458 321.603 141.278 303.346 141.278C280.655 141.278 267.937 160.1 267.937 181.137L314.411 181.137Z" fill="white"/>
<path d="M474.857 539.313C456.267 522.041 430.227 529.902 419.53 535.992C405.367 547.507 403.67 554.445 404.592 556.475L545.121 688.231H553.973H587.168C566.145 634.532 498.093 560.904 474.857 539.313Z" fill="white"/>
<path d="M249.679 557.582C258.974 536.767 251.339 512.372 246.36 502.776C246.36 498.79 236.77 488.198 231.975 483.4L142.9 687.677C152.677 689.159 160.578 688.823 166.861 687.476C167.368 687.368 167.864 687.252 168.35 687.131C179.817 684.259 185.514 677.956 187.161 673.837C204.128 643.758 240.385 578.397 249.679 557.582Z" fill="white"/>
<path d="M341.521 175.048L314.411 181.137V186.501L337.648 186.119L360.885 186.673L341.521 175.048Z" fill="#E1E1E1"/>
<path d="M267.937 186.673H271.81H296.153H301.686H303.899L314.411 186.501V181.137L267.937 181.137V186.673Z" fill="#D9D9D9"/>
<path d="M286.748 205.495C286.748 199.959 288.961 198.299 290.067 197.745C290.826 197.366 293.923 196.726 296.153 197.965V186.673H271.81V207.71C271.81 213.842 274.616 218.947 277.532 222.295L279.937 224.387C280.71 225.034 281.433 225.643 281.768 225.978L292.834 214.906C289.293 215.349 287.301 211.769 286.748 209.924V205.495Z" fill="#202020"/>
<path d="M301.686 192.209V186.673H296.153V197.965C297.177 198.534 298.018 199.499 298.366 201.067C299.252 205.052 297.997 210.109 297.26 212.138C301.686 213.024 303.53 209.186 303.899 207.156V198.028C302.496 195.966 301.686 193.772 301.686 192.209Z" fill="#202020"/>
<path d="M301.686 186.673V192.209C301.686 193.772 302.496 195.966 303.899 198.028V186.673H301.686Z" fill="#202020"/>
<path d="M463.791 391.504H344.84L345.39 408.557L345.393 408.554V408.665H464.345L463.791 391.504Z" fill="white"/>
<path d="M587.168 688.231H553.973L514.138 722H601L591.595 688.119L587.168 688.231Z" fill="white"/>
<path d="M156.178 688.638L92 721.446H197.12L194.907 687.123L168.35 687.131C168.078 687.241 167.553 687.358 166.861 687.476C163.716 688.15 160.166 688.571 156.178 688.638Z" fill="white"/>
<path d="M301.5 187V194C302.5 202 314.5 204 318 204M318 238H351V221M318 238C305 237.5 296 220.5 296 215.5V187M318 238V221M318 204H351V221M318 204V221M318 221H351" stroke="#202020" stroke-width="2"/>
</svg>
