<svg width="14" height="13" viewBox="0 0 14 13" fill="none" xmlns="http://www.w3.org/2000/svg">
<path d="M7.9215 0.946572C6.58045 1.3587 5.15965 2.24201 3.81323 3.50113C2.46682 4.76024 1.52226 6.08891 1.08155 7.343C0.640844 8.5971 0.772005 9.65936 1.43336 10.2778L3.51909 12.2283C4.18044 12.8468 5.32412 12.9663 6.65741 12.5573C7.9907 12.1484 9.41926 11.2619 10.7657 10.0028C12.1121 8.74365 13.0567 7.41498 13.4974 6.16088C13.9381 4.90679 13.8069 3.84452 13.1456 3.22606L11.0598 1.27557C10.3985 0.657097 9.25479 0.537635 7.9215 0.946572ZM4.50848 4.15129C7.20045 1.63387 9.64351 1.23713 10.3722 1.91858C11.1009 2.60004 10.6767 4.88469 7.9847 7.40211C5.29273 9.91953 2.84966 10.3163 2.12096 9.63481C1.39226 8.95336 1.81651 6.66871 4.50848 4.15129ZM8.33006 8.36809L9.72055 9.66842C8.87708 10.4068 8.06781 10.936 7.33227 11.2931L5.97133 10.0204C6.82624 9.56027 7.6181 9.00556 8.33006 8.36809ZM9.01766 7.72507C9.69933 7.05928 10.2925 6.31876 10.7846 5.51929L12.1451 6.79158C11.7632 7.47942 11.1973 8.23621 10.4077 9.02499L9.01766 7.72507ZM4.2067 11.5853L3.40412 10.8348C3.80207 10.8023 4.19399 10.7257 4.57168 10.6068C4.72869 10.5583 4.88867 10.5014 5.04648 10.4416L6.36787 11.6773C5.34691 11.9949 4.56692 11.9222 4.2067 11.5853ZM12.5563 5.89012L11.2349 4.6544C11.3002 4.50562 11.3598 4.35722 11.4116 4.21039C11.5388 3.85719 11.6206 3.49069 11.6554 3.11854L12.458 3.86908C12.8182 4.20594 12.8959 4.93535 12.5563 5.89012Z" fill="#DDAD4E"/>
<path d="M4.50848 4.15129C7.20045 1.63387 9.64351 1.23713 10.3722 1.91858C11.1009 2.60004 10.6767 4.88469 7.9847 7.40211C5.29273 9.91953 2.84966 10.3163 2.12096 9.63481C1.39226 8.95336 1.81651 6.66871 4.50848 4.15129Z" fill="#F9D795"/>
<path d="M9.01766 7.72507C9.69933 7.05928 10.2925 6.31876 10.7846 5.51929L12.1451 6.79158C11.7632 7.47942 11.1973 8.23621 10.4077 9.02499L9.01766 7.72507Z" fill="#F9D795"/>
<path d="M12.5563 5.89012L11.2349 4.6544C11.3002 4.50562 11.3598 4.35722 11.4116 4.21039C11.5388 3.85719 11.6206 3.49069 11.6554 3.11854L12.458 3.86908C12.8182 4.20594 12.8959 4.93535 12.5563 5.89012Z" fill="#F9D795"/>
<path d="M4.2067 11.5853L3.40412 10.8348C3.80207 10.8023 4.19399 10.7257 4.57168 10.6068C4.72869 10.5583 4.88867 10.5014 5.04648 10.4416L6.36787 11.6773C5.34691 11.9949 4.56692 11.9222 4.2067 11.5853Z" fill="#F9D795"/>
<path d="M8.33006 8.36809L9.72055 9.66842C8.87708 10.4068 8.06781 10.936 7.33227 11.2931L5.97133 10.0204C6.82624 9.56027 7.6181 9.00556 8.33006 8.36809Z" fill="#F9D795"/>
</svg>