<svg width="525" height="391" viewBox="0 0 525 391" fill="none" xmlns="http://www.w3.org/2000/svg">
<ellipse cx="233" cy="366.5" rx="233" ry="24.5" fill="#3D767E"/>
<rect x="121" y="44.9017" width="39" height="329" rx="16" fill="#E9BB91"/>
<rect x="200.815" y="44.3939" width="38.6303" height="329.001" rx="16" transform="rotate(1.80914 200.815 44.3939)" fill="#E9BB91"/>
<rect x="501.669" y="145.477" width="38.6303" height="329.001" rx="16" transform="rotate(52.8621 501.669 145.477)" fill="#E9BB91"/>
<circle cx="374" cy="174.902" r="38" fill="#DA355C"/>
<path fill-rule="evenodd" clip-rule="evenodd" d="M123.571 10.5462C121.401 10.9581 119.975 13.0515 120.387 15.2219L121.301 20.034L108.172 22.5256C106.057 22.9269 104.668 24.9667 105.069 27.0816C105.47 29.1965 107.51 30.5856 109.625 30.1843L122.754 27.6927L123.805 33.2326C124.217 35.403 126.311 36.8285 128.481 36.4166L183.68 25.9413C185.851 25.5294 187.276 23.436 186.864 21.2656L185.813 15.7258L198.984 13.2264C201.098 12.8251 202.488 10.7852 202.086 8.67035C201.685 6.55546 199.645 5.16636 197.53 5.56771L184.36 8.06712L183.446 3.25495C183.035 1.08454 180.941 -0.341017 178.771 0.0708672L123.571 10.5462Z" fill="#D68267"/>
<path fill-rule="evenodd" clip-rule="evenodd" d="M283.439 67.5661C281.447 66.6114 279.058 67.4524 278.103 69.4446L275.986 73.8613L263.936 68.0861C261.994 67.1558 259.667 67.9753 258.736 69.9166C257.806 71.8578 258.625 74.1856 260.567 75.1159L272.617 80.8911L270.18 85.9763C269.226 87.9685 270.067 90.3575 272.059 91.3122L322.726 115.594C324.718 116.548 327.107 115.707 328.061 113.715L330.498 108.63L342.587 114.424C344.529 115.354 346.857 114.534 347.787 112.593C348.717 110.652 347.898 108.324 345.956 107.394L333.867 101.6L335.984 97.1835C336.939 95.1913 336.098 92.8024 334.106 91.8476L283.439 67.5661Z" fill="#D68267"/>
</svg>
