<svg width="181" height="74" viewBox="0 0 181 74" fill="none" xmlns="http://www.w3.org/2000/svg">
<rect x="101.755" y="8.47284" width="7.57618" height="64.5238" rx="3.78809" fill="#D08A49"/>
<rect x="117.422" y="8.4032" width="7.57618" height="64.5238" rx="3.78809" transform="rotate(1.80914 117.422 8.4032)" fill="#D08A49"/>
<rect x="176.426" y="28.2275" width="7.57618" height="64.5238" rx="3.78809" transform="rotate(52.8621 176.426 28.2275)" fill="#D08A49"/>
<circle cx="151.316" cy="33.9728" r="7.38677" fill="#D33333"/>
<path fill-rule="evenodd" clip-rule="evenodd" d="M102.205 5.11029L99.5381 5.6164C99.1233 5.69511 98.7232 5.42268 98.6445 5.00791C98.5658 4.59313 98.8382 4.19308 99.253 4.11437L101.964 3.59987C102.116 2.53763 102.926 1.64111 104.039 1.42985L111.333 0.0457471C112.446 -0.165512 113.528 0.372049 114.059 1.30464L116.778 0.788592C117.193 0.70988 117.593 0.98231 117.672 1.39708C117.75 1.81186 117.478 2.21191 117.063 2.29062L114.388 2.79827C114.294 3.9257 113.461 4.89825 112.296 5.11946L105.002 6.50356C103.837 6.72477 102.705 6.12495 102.205 5.11029Z" fill="#AC583D"/>
<path fill-rule="evenodd" clip-rule="evenodd" d="M129.801 13.0497C129.421 12.8673 128.964 13.028 128.782 13.4087C128.599 13.7894 128.76 14.246 129.141 14.4284L131.589 15.6015C131.39 16.7153 131.946 17.869 133.016 18.3817L139.71 21.59C140.78 22.1028 142.027 21.8131 142.771 20.9607L145.227 22.1374C145.607 22.3199 146.064 22.1592 146.246 21.7785C146.429 21.3978 146.268 20.9412 145.887 20.7588L143.391 19.5626C143.517 18.4968 142.964 17.4226 141.942 16.9329L135.248 13.7246C134.226 13.235 133.042 13.4771 132.29 14.2423L129.801 13.0497Z" fill="#AC583D"/>
<path d="M12.9106 72.1516C10.2717 72.1516 8.12614 71.683 6.47378 70.7458C4.82143 69.784 3.55133 68.4276 2.6635 66.6766C1.77567 64.9256 1.15912 62.8663 0.813847 60.4988C0.493241 58.1066 0.332937 55.4677 0.332937 52.5823V46.2564H7.76854V52.8782C7.76854 57.4407 8.08915 60.7084 8.73036 62.6814C9.39623 64.6297 10.8143 65.6038 12.9846 65.6038C14.4889 65.6038 15.5864 65.2585 16.2769 64.568C16.9921 63.8528 17.4484 62.7184 17.6457 61.1646C17.843 59.6109 17.9416 57.564 17.9416 55.0238C17.9416 52.1137 17.4237 49.6105 16.3879 47.5142C15.3768 45.4179 13.9094 43.408 11.9857 41.4843L7.73155 37.2301C6.49845 35.9724 5.29001 34.6036 4.10623 33.1239C2.92245 31.6195 1.93597 29.9179 1.14678 28.0189C0.382261 26.1199 0 23.9496 0 21.5081C0 18.2281 0.345268 15.3919 1.03581 12.9997C1.72634 10.6075 2.98411 8.75783 4.8091 7.45074C6.63409 6.14366 9.2236 5.49011 12.5776 5.49011C15.2165 5.49011 17.3251 5.94636 18.9034 6.85886C20.5065 7.77135 21.7026 9.07844 22.4918 10.7801C23.3056 12.4571 23.8359 14.4548 24.0825 16.773C24.3538 19.0912 24.4894 21.6561 24.4894 24.4675V28.3148H17.1648V23.9496C17.1648 21.3108 17.0538 19.1159 16.8318 17.3649C16.6345 15.5892 16.2153 14.2575 15.5741 13.3696C14.9329 12.4818 13.934 12.0379 12.5776 12.0379C11.3445 12.0379 10.3334 12.3462 9.54421 12.9627C8.77968 13.5546 8.22479 14.4794 7.87952 15.7372C7.53425 16.9949 7.36162 18.6103 7.36162 20.5833C7.36162 22.3096 7.57124 23.74 7.9905 24.8745C8.40975 25.9843 9.03863 27.0201 9.87714 27.9819C10.7403 28.9437 11.7885 30.0782 13.0216 31.3852L17.4607 36.0834C19.8036 38.5249 21.7149 41.2624 23.1946 44.2958C24.699 47.3046 25.4512 50.8066 25.4512 54.8018C25.4512 58.4025 25.0936 61.4976 24.3784 64.0871C23.6879 66.6766 22.4424 68.6742 20.6421 70.08C18.8418 71.461 16.2646 72.1516 12.9106 72.1516Z" fill="#448791"/>
<path d="M30.469 71.4117V12.6668H23.2923V6.30396H44.7853V12.6668H38.0895V71.4117H30.469Z" fill="#448791"/>
<path d="M42.2564 71.4117L52.1336 6.30396H61.3448L72.1098 71.4117H64.8962L63.0465 58.9821H51.2457L49.544 71.4117H42.2564ZM52.0966 52.7672H62.0847L56.9427 18.3637H56.8317L52.0966 52.7672Z" fill="#448791"/>
<path d="M76.7576 71.4117V12.6668H69.581V6.30396H91.0739V12.6668H84.3782V71.4117H76.7576Z" fill="#448791"/>
</svg>
